<svg width="75" height="75" fill="none" xmlns="http://www.w3.org/2000/svg"><rect width="75" height="75" rx="10" fill="url(#paint0_linear_12790_454)"/><g clip-path="url(#clip0_12790_454)" fill="#fff"><path d="M37.499 30.832a6.676 6.676 0 00-6.669 6.669 6.676 6.676 0 006.669 6.668 6.676 6.676 0 006.668-6.668 6.676 6.676 0 00-6.668-6.669zm3.96 5.413l-4.778 4.777a1.024 1.024 0 01-1.453 0l-1.825-1.826a1.027 1.027 0 111.452-1.452l1.1 1.1 4.051-4.051a1.027 1.027 0 111.452 1.452z"/><path d="M52.367 29.496v-.027a36.397 36.397 0 01-.032-1.088 3.71 3.71 0 00-3.493-3.633c-4.024-.225-7.137-1.537-9.797-4.13l-.023-.021a2.24 2.24 0 00-3.044 0l-.023.021c-2.66 2.593-5.772 3.905-9.796 4.13a3.71 3.71 0 00-3.493 3.634c-.006.393-.017.749-.032 1.087l-.001.063c-.079 4.104-.176 9.21 1.533 13.846.939 2.55 2.362 4.765 4.228 6.586 2.126 2.075 4.91 3.721 8.275 4.895A2.552 2.552 0 0037.5 55a2.511 2.511 0 00.833-.142c3.361-1.175 6.142-2.823 8.266-4.897 1.865-1.822 3.288-4.038 4.228-6.588 1.715-4.649 1.618-9.765 1.54-13.877zM37.5 46.223c-4.81 0-8.723-3.913-8.723-8.722 0-4.81 3.913-8.723 8.723-8.723 4.81 0 8.722 3.913 8.722 8.723 0 4.81-3.913 8.722-8.722 8.722z"/></g><defs><linearGradient id="paint0_linear_12790_454" x1="15.5" y1="0" x2="37.5" y2="75" gradientUnits="userSpaceOnUse"><stop stop-color="#FCD876"/><stop offset="1" stop-color="#FABC13"/></linearGradient><clipPath id="clip0_12790_454"><path fill="#fff" transform="translate(20 20)" d="M0 0h35v35H0z"/></clipPath></defs></svg>