<svg width="75" height="75" fill="none" xmlns="http://www.w3.org/2000/svg"><rect width="75" height="75" rx="10" fill="url(#paint0_linear_12790_452)"/><g clip-path="url(#clip0_12790_452)"><path d="M53.952 41.335l-3.218-2.515c.041-.388.076-.842.076-1.321 0-.48-.033-.934-.076-1.322l3.22-2.517c.599-.472.762-1.31.381-2.01l-3.345-5.787c-.358-.654-1.14-.99-1.936-.696l-3.796 1.524a13.014 13.014 0 00-2.279-1.323l-.577-4.026A1.549 1.549 0 0040.856 20h-6.709c-.786 0-1.45.578-1.542 1.33l-.58 4.041c-.764.344-1.515.782-2.274 1.323l-3.807-1.529c-.713-.275-1.566.034-1.92.684l-3.35 5.796a1.568 1.568 0 00.38 2.02l3.216 2.515a12.71 12.71 0 00-.076 1.32c0 .401.025.828.076 1.321l-3.22 2.517c-.598.474-.76 1.313-.38 2.01l3.346 5.788c.358.652 1.134.99 1.936.696l3.796-1.524c.726.523 1.489.967 2.278 1.322l.577 4.025A1.548 1.548 0 0034.15 55h6.708c.786 0 1.451-.578 1.545-1.33l.578-4.04a13.476 13.476 0 002.276-1.324l3.806 1.529c.184.071.375.108.571.108a1.54 1.54 0 001.35-.79l3.36-5.82a1.574 1.574 0 00-.391-1.998zm-16.45 1.998a5.84 5.84 0 01-5.834-5.833 5.84 5.84 0 015.834-5.833 5.84 5.84 0 015.833 5.833 5.84 5.84 0 01-5.833 5.833z" fill="#fff"/></g><defs><linearGradient id="paint0_linear_12790_452" x1="3" y1="2.5" x2="60.5" y2="75" gradientUnits="userSpaceOnUse"><stop stop-color="#FF9A9A"/><stop offset="1" stop-color="#F14C4C"/></linearGradient><clipPath id="clip0_12790_452"><path fill="#fff" transform="translate(20 20)" d="M0 0h35v35H0z"/></clipPath></defs></svg>