<svg xmlns="http://www.w3.org/2000/svg" fill="none" viewBox="0 0 75 75"><rect width="75" height="75" fill="url(#a)" rx="10" style="mix-blend-mode:luminosity"/><g fill="#fff" clip-path="url(#b)"><path d="M37.25 36.86c2.31 0 4.32-.83 5.96-2.47 1.64-1.64 2.47-3.64 2.47-5.96s-.83-4.32-2.47-5.96A8.16 8.16 0 0 0 37.25 20c-2.32 0-4.32.83-5.96 2.47-1.64 1.64-2.47 3.64-2.47 5.96s.83 4.32 2.47 5.96a8.15 8.15 0 0 0 5.96 2.47zM52 46.91a20.84 20.84 0 0 0-.28-2.2 17.43 17.43 0 0 0-.55-2.23 10.98 10.98 0 0 0-.91-2.08 7.82 7.82 0 0 0-1.38-1.8 6.08 6.08 0 0 0-1.98-1.24 6.84 6.84 0 0 0-2.53-.45c-.35 0-.7.14-1.37.58l-1.42.92a8.2 8.2 0 0 1-1.85.81 7.33 7.33 0 0 1-2.26.37 7.34 7.34 0 0 1-2.26-.37 8.19 8.19 0 0 1-1.84-.81l-1.43-.92c-.67-.44-1.01-.58-1.37-.58-.91 0-1.76.15-2.53.45a6.07 6.07 0 0 0-1.98 1.25 7.83 7.83 0 0 0-1.38 1.8c-.38.66-.68 1.36-.91 2.07a17.47 17.47 0 0 0-.54 2.22 20.74 20.74 0 0 0-.29 2.21 30.3 30.3 0 0 0-.07 2.07c0 1.83.58 3.3 1.73 4.4A6.22 6.22 0 0 0 29.05 55H45.9a6.2 6.2 0 0 0 4.45-1.62 5.8 5.8 0 0 0 1.72-4.4c0-.7-.02-1.4-.07-2.07z"/></g><defs><linearGradient id="a" x1="3" x2="37.5" y1="3.5" y2="75" gradientUnits="userSpaceOnUse"><stop stop-color="#85FED6"/><stop offset="1" stop-color="#4EDAAC"/></linearGradient><clipPath id="b"><path fill="#fff" d="M20 20h35v35H20z"/></clipPath></defs></svg>