<svg width="75" height="75" fill="none" xmlns="http://www.w3.org/2000/svg"><rect width="75" height="75" rx="10" fill="url(#paint0_linear_12790_453)"/><g clip-path="url(#clip0_12790_453)" fill="#fff"><path d="M37.248 36.86c2.317 0 4.322-.831 5.961-2.47 1.639-1.639 2.47-3.644 2.47-5.96s-.831-4.322-2.47-5.96c-1.64-1.64-3.645-2.47-5.96-2.47-2.317 0-4.322.83-5.96 2.47-1.64 1.638-2.47 3.644-2.47 5.96s.83 4.321 2.47 5.96c1.638 1.639 3.644 2.47 5.96 2.47zm14.753 10.053a20.839 20.839 0 00-.284-2.211 17.429 17.429 0 00-.544-2.224 10.982 10.982 0 00-.914-2.073 7.82 7.82 0 00-1.378-1.797 6.076 6.076 0 00-1.98-1.244 6.843 6.843 0 00-2.528-.457c-.357 0-.703.146-1.37.58-.41.269-.89.578-1.427.921-.459.292-1.08.566-1.847.814a7.334 7.334 0 01-2.258.365 7.34 7.34 0 01-2.26-.365c-.766-.248-1.387-.522-1.845-.814-.531-.34-1.012-.649-1.428-.92-.667-.435-1.013-.581-1.37-.581-.91 0-1.76.154-2.527.457a6.074 6.074 0 00-1.98 1.245 7.827 7.827 0 00-1.379 1.796c-.38.669-.687 1.366-.914 2.074a17.471 17.471 0 00-.543 2.223 20.74 20.74 0 00-.284 2.212c-.046.67-.07 1.365-.07 2.067 0 1.827.58 3.306 1.726 4.397C25.728 54.454 27.225 55 29.045 55h16.853c1.82 0 3.316-.545 4.447-1.622 1.146-1.09 1.727-2.57 1.727-4.397 0-.706-.024-1.401-.071-2.068z"/></g><defs><linearGradient id="paint0_linear_12790_453" x1="3" y1="3.5" x2="37.5" y2="75" gradientUnits="userSpaceOnUse"><stop stop-color="#85FED6"/><stop offset="1" stop-color="#4EDAAC"/></linearGradient><clipPath id="clip0_12790_453"><path fill="#fff" transform="translate(20 20)" d="M0 0h35v35H0z"/></clipPath></defs></svg>