<svg width="75" height="75" fill="none" xmlns="http://www.w3.org/2000/svg"><rect width="75" height="75" rx="10" fill="url(#paint0_linear_12790_455)" style="mix-blend-mode:luminosity"/><g clip-path="url(#clip0_12790_455)"><path d="M37.545 19.932l-15.152 8.75v17.5l15.152 8.75 15.152-8.75v-17.5l-15.152-8.75zM31.694 40.19l-1.451 1.451-4.21-4.21 4.21-4.209 1.45 1.451-2.758 2.759 2.759 2.758zm4.353 2.531l-1.835-.918 4.83-9.66 1.836.917-4.83 9.661zm8.8-1.08l-1.452-1.45 2.76-2.76-2.76-2.758 1.452-1.451 4.21 4.21-4.21 4.21z" fill="#fff"/></g><defs><linearGradient id="paint0_linear_12790_455" x1="0" y1="0" x2="55" y2="75" gradientUnits="userSpaceOnUse"><stop stop-color="#FE9AF4"/><stop offset="1" stop-color="#EC4EDC"/></linearGradient><clipPath id="clip0_12790_455"><path fill="#fff" transform="translate(20 20)" d="M0 0h35v35H0z"/></clipPath></defs></svg>