<svg width="170" height="49" fill="none" xmlns="http://www.w3.org/2000/svg"><path fill-rule="evenodd" clip-rule="evenodd" d="M18.41 8.094v13.794H5.929V8.094H0v32.924h5.928V27.675H18.41v13.343h5.927V8.094H18.41zm24.894 22.283c0 2.742-2.2 4.973-4.903 4.973-2.703 0-4.902-2.231-4.902-4.973V16.275h-5.614v14.102c0 5.883 4.718 10.669 10.516 10.669 5.797 0 10.514-4.786 10.514-10.67v-14.1h-5.611v14.102zm41.653-12.65c0-2.891 1.886-3.808 3.951-3.808 1.662 0 3.862 1.284 5.297 2.844l3.682-4.403c-1.84-2.522-5.566-4.266-8.62-4.266-6.107 0-10.507 3.624-10.507 9.633 0 11.145 13.426 7.612 13.426 13.852 0 1.924-1.84 3.622-3.95 3.622-3.324 0-4.403-1.65-5.928-3.394l-4.087 4.31c2.605 3.257 5.838 4.91 9.7 4.91 5.792 0 10.462-3.67 10.462-9.404 0-12.384-13.426-8.53-13.426-13.896zm83.065 18.032c-3.321 0-4.263-1.458-4.263-3.69V22.18h5.162v-5.012h-5.162v-6.607l-5.702 2.597v20.14c0 5.149 3.501 7.747 8.304 7.747.719 0 1.707-.047 2.246-.182L170 35.669c-.629.044-1.347.09-1.978.09zm-103.355-.464c-3.527 0-6.387-2.902-6.387-6.481 0-3.58 2.86-6.481 6.387-6.481 3.528 0 6.388 2.902 6.388 6.481 0 3.58-2.86 6.481-6.388 6.481zm.036-18.855c-2.785 0-4.728.82-6.605 2.69V8.29h-5.631v20.087c0 7.518 5.356 12.667 11.376 12.667 6.69 0 12.553-5.24 12.553-12.302 0-6.972-5.406-12.303-11.693-12.303z" fill="#33475B"/><mask id="a" style="mask-type:alpha" maskUnits="userSpaceOnUse" x="101" y="16" width="25" height="33"><path d="M125.838 48.9h-23.93V16.143h23.93V48.9z" fill="#fff"/></mask><g mask="url(#a)"><path fill-rule="evenodd" clip-rule="evenodd" d="M114.109 34.857c-3.527 0-6.387-2.902-6.387-6.481 0-3.58 2.86-6.481 6.387-6.481 3.527 0 6.387 2.902 6.387 6.48 0 3.58-2.86 6.482-6.387 6.482zm11.729-6.41c0-7.062-5.863-12.303-12.554-12.303-6.019 0-11.376 5.15-11.376 12.668v20.087h5.631V38.06c1.878 1.87 3.82 2.69 6.605 2.69 6.287 0 11.694-5.331 11.694-12.304z" fill="#33475B"/></g><mask id="b" style="mask-type:alpha" maskUnits="userSpaceOnUse" x="109" y="0" width="46" height="49"><path d="M109.193 0h45.34v48.211h-45.34V0z" fill="#fff"/></mask><g mask="url(#b)"><path fill-rule="evenodd" clip-rule="evenodd" d="M142.131 34.741c-3.512 0-6.359-2.889-6.359-6.452 0-3.564 2.847-6.452 6.359-6.452s6.359 2.889 6.359 6.452-2.847 6.452-6.359 6.452zm1.903-18.874v-5.74a4.42 4.42 0 002.511-3.982v-.133c0-2.427-1.957-4.414-4.35-4.414h-.13c-2.392 0-4.349 1.987-4.349 4.414v.133a4.422 4.422 0 002.51 3.983v5.739a12.243 12.243 0 00-5.863 2.619l-15.532-12.26c.103-.399.175-.81.175-1.242.003-2.749-2.19-4.981-4.9-4.985-2.709-.003-4.91 2.223-4.913 4.973-.003 2.75 2.19 4.981 4.901 4.984.882.001 1.7-.253 2.416-.667l15.278 12.06a12.655 12.655 0 00-2.061 6.94c0 2.687.837 5.172 2.25 7.216l-4.646 4.714a3.918 3.918 0 00-1.152-.19c-2.226 0-4.031 1.832-4.031 4.09 0 2.26 1.805 4.092 4.031 4.092 2.227 0 4.032-1.831 4.032-4.091 0-.409-.077-.796-.187-1.168l4.596-4.664a12.222 12.222 0 007.511 2.586c6.85 0 12.402-5.634 12.402-12.585 0-6.292-4.555-11.49-10.499-12.422z" fill="#FF7A59"/></g></svg>