<svg width="147" height="30" fill="none" xmlns="http://www.w3.org/2000/svg"><circle cx="13" cy="15" r="13" fill="url(#paint0_linear_77_3145)"/><path d="M38.2 22.14c-.973 0-1.853-.167-2.64-.5-.773-.333-1.387-.813-1.84-1.44-.453-.627-.687-1.367-.7-2.22h3c.04.573.24 1.027.6 1.36.373.333.88.5 1.52.5.653 0 1.167-.153 1.54-.46.373-.32.56-.733.56-1.24 0-.413-.127-.753-.38-1.02a2.544 2.544 0 00-.96-.62c-.373-.16-.893-.333-1.56-.52-.907-.267-1.647-.527-2.22-.78a4.115 4.115 0 01-1.46-1.18c-.4-.533-.6-1.24-.6-2.12 0-.827.207-1.547.62-2.16.413-.613.993-1.08 1.74-1.4.747-.333 1.6-.5 2.56-.5 1.44 0 2.607.353 3.5 1.06.907.693 1.407 1.667 1.5 2.92H39.9a1.558 1.558 0 00-.62-1.18c-.373-.32-.873-.48-1.5-.48-.547 0-.987.14-1.32.42-.32.28-.48.687-.48 1.22 0 .373.12.687.36.94.253.24.56.44.92.6.373.147.893.32 1.56.52.907.267 1.647.533 2.22.8a3.987 3.987 0 011.48 1.2c.413.533.62 1.233.62 2.1a3.95 3.95 0 01-.58 2.08c-.387.64-.953 1.153-1.7 1.54-.747.373-1.633.56-2.66.56zm13.847 0c-1.306 0-2.506-.307-3.6-.92a6.89 6.89 0 01-2.6-2.54c-.64-1.093-.96-2.327-.96-3.7 0-1.36.32-2.58.96-3.66a6.847 6.847 0 012.6-2.56c1.094-.613 2.294-.92 3.6-.92 1.32 0 2.52.307 3.6.92a6.704 6.704 0 012.58 2.56c.64 1.08.96 2.3.96 3.66 0 1.373-.32 2.607-.96 3.7a6.745 6.745 0 01-2.58 2.54c-1.093.613-2.293.92-3.6.92zm0-2.5c.84 0 1.58-.187 2.22-.56a3.975 3.975 0 001.5-1.64c.36-.707.54-1.527.54-2.46s-.18-1.747-.54-2.44c-.36-.707-.86-1.247-1.5-1.62s-1.38-.56-2.22-.56c-.84 0-1.586.187-2.24.56-.64.373-1.14.913-1.5 1.62-.36.693-.54 1.507-.54 2.44s.18 1.753.54 2.46c.36.707.86 1.253 1.5 1.64.654.373 1.4.56 2.24.56zm17.844-11.6v2.26h-5.82v3.58h4.46v2.22h-4.46V22h-2.8V8.04h8.62zm11.485 0v2.26h-3.72V22h-2.8V10.3h-3.72V8.04h10.24zm16.989 4.32c0 .747-.18 1.447-.54 2.1-.347.653-.9 1.18-1.66 1.58-.747.4-1.694.6-2.84.6h-2.34V22h-2.8V8.04h5.14c1.08 0 2 .187 2.76.56.76.373 1.326.887 1.7 1.54.386.653.58 1.393.58 2.22zm-5.16 2.02c.773 0 1.346-.173 1.72-.52.373-.36.56-.86.56-1.5 0-1.36-.76-2.04-2.28-2.04h-2.22v4.06h2.22zm13.628 7.76c-1.307 0-2.507-.307-3.6-.92a6.886 6.886 0 01-2.6-2.54c-.64-1.093-.96-2.327-.96-3.7 0-1.36.32-2.58.96-3.66a6.842 6.842 0 012.6-2.56c1.093-.613 2.293-.92 3.6-.92 1.32 0 2.52.307 3.6.92a6.708 6.708 0 012.58 2.56c.64 1.08.96 2.3.96 3.66 0 1.373-.32 2.607-.96 3.7a6.749 6.749 0 01-2.58 2.54c-1.094.613-2.294.92-3.6.92zm0-2.5c.84 0 1.58-.187 2.22-.56a3.975 3.975 0 001.5-1.64c.36-.707.54-1.527.54-2.46s-.18-1.747-.54-2.44c-.36-.707-.86-1.247-1.5-1.62s-1.38-.56-2.22-.56c-.84 0-1.587.187-2.24.56-.64.373-1.14.913-1.5 1.62-.36.693-.54 1.507-.54 2.44s.18 1.753.54 2.46c.36.707.86 1.253 1.5 1.64.653.373 1.4.56 2.24.56zm12.023-11.6V22h-2.8V8.04h2.8zM133.562 22h-2.8l-6.34-9.58V22h-2.8V8.02h2.8l6.34 9.6v-9.6h2.8V22zm12.267-13.96v2.26h-3.72V22h-2.8V10.3h-3.72V8.04h10.24z" fill="#24DC9F"/><g filter="url(#filter0_d_77_3145)"><circle cx="13" cy="15" r="4" fill="#fff"/><circle cx="13" cy="15" r="4.5" stroke="#F9FEFC"/></g><rect x="45.242" y="21.722" width="19.314" height="2.117" rx="1.058" transform="rotate(-49.664 45.242 21.722)" fill="#FEDF8B"/><rect x="100.244" y="21.719" width="19.31" height="2.117" rx="1.058" transform="rotate(-49.664 100.244 21.719)" fill="#FEDF8B"/><defs><linearGradient id="paint0_linear_77_3145" x1="11.566" y1="6.684" x2="13" y2="28" gradientUnits="userSpaceOnUse"><stop stop-color="#8EE7CA"/><stop offset="1" stop-color="#2FEEAF"/></linearGradient><filter id="filter0_d_77_3145" x="7" y="10" width="12" height="12" filterUnits="userSpaceOnUse" color-interpolation-filters="sRGB"><feFlood flood-opacity="0" result="BackgroundImageFix"/><feColorMatrix in="SourceAlpha" values="0 0 0 0 0 0 0 0 0 0 0 0 0 0 0 0 0 0 127 0" result="hardAlpha"/><feOffset dy="1"/><feGaussianBlur stdDeviation=".5"/><feComposite in2="hardAlpha" operator="out"/><feColorMatrix values="0 0 0 0 0.0211458 0 0 0 0 0.120833 0 0 0 0 0.08875 0 0 0 0.2 0"/><feBlend in2="BackgroundImageFix" result="effect1_dropShadow_77_3145"/><feBlend in="SourceGraphic" in2="effect1_dropShadow_77_3145" result="shape"/></filter></defs></svg>